<svg width="489" height="63" viewBox="0 0 489 63" fill="none" xmlns="http://www.w3.org/2000/svg">
<mask id="path-1-outside-1_260_299" maskUnits="userSpaceOnUse" x="9" y="-5" width="471" height="73" fill="black">
<rect fill="white" x="9" y="-5" width="471" height="73"/>
<path d="M14.4944 35.73C14.4944 30.55 15.5304 25.9373 17.6024 21.892C19.7237 17.8467 22.7331 14.714 26.6304 12.494C30.5277 10.2247 35.1157 9.09 40.3944 9.09C44.9331 9.09 48.9784 9.95333 52.5304 11.68C56.1318 13.3573 59.0424 15.75 61.2624 18.858C63.5317 21.966 65.0364 25.592 65.7764 29.736H48.4604C47.6711 28.0093 46.5364 26.6773 45.0564 25.74C43.6257 24.7533 41.9731 24.26 40.0984 24.26C37.3357 24.26 35.1404 25.296 33.5124 27.368C31.9337 29.44 31.1444 32.2273 31.1444 35.73C31.1444 39.2327 31.9337 42.02 33.5124 44.092C35.1404 46.164 37.3357 47.2 40.0984 47.2C41.9731 47.2 43.6257 46.7313 45.0564 45.794C46.5364 44.8073 47.6711 43.4507 48.4604 41.724H65.7764C65.0364 45.868 63.5317 49.494 61.2624 52.602C59.0424 55.71 56.1318 58.1273 52.5304 59.854C48.9784 61.5313 44.9331 62.37 40.3944 62.37C35.1157 62.37 30.5277 61.26 26.6304 59.04C22.7331 56.7707 19.7237 53.6133 17.6024 49.568C15.5304 45.5227 14.4944 40.91 14.4944 35.73ZM100.921 19.968C105.707 19.968 109.431 21.5713 112.095 24.778C114.809 27.9847 116.165 32.326 116.165 37.802V62H99.8112V39.874C99.8112 37.9007 99.2685 36.3467 98.1832 35.212C97.1472 34.028 95.7412 33.436 93.9652 33.436C92.1399 33.436 90.7092 34.028 89.6732 35.212C88.6372 36.3467 88.1192 37.9007 88.1192 39.874V62H71.6912V7.24H88.1192V26.628C89.4019 24.6547 91.1039 23.0513 93.2252 21.818C95.3959 20.5847 97.9612 19.968 100.921 19.968ZM131.577 16.934C128.716 16.934 126.422 16.1693 124.695 14.64C122.968 13.1107 122.105 11.1867 122.105 8.868C122.105 6.5 122.968 4.55133 124.695 3.022C126.422 1.44333 128.716 0.653996 131.577 0.653996C134.389 0.653996 136.658 1.44333 138.385 3.022C140.112 4.55133 140.975 6.5 140.975 8.868C140.975 11.1867 140.112 13.1107 138.385 14.64C136.658 16.1693 134.389 16.934 131.577 16.934ZM139.717 20.264V62H123.289V20.264H139.717ZM144.917 41.132C144.917 36.7907 145.805 33.0167 147.581 29.81C149.406 26.554 151.922 24.0627 155.129 22.336C158.385 20.6093 162.085 19.746 166.229 19.746C171.655 19.746 176.219 21.2753 179.919 24.334C183.668 27.3927 186.036 31.6353 187.023 37.062H169.633C168.991 34.8913 167.733 33.806 165.859 33.806C164.527 33.806 163.466 34.4227 162.677 35.656C161.937 36.8893 161.567 38.7147 161.567 41.132C161.567 43.5493 161.937 45.3747 162.677 46.608C163.466 47.8413 164.527 48.458 165.859 48.458C167.733 48.458 168.991 47.3727 169.633 45.202H187.023C186.036 50.6287 183.668 54.8713 179.919 57.93C176.219 60.9887 171.655 62.518 166.229 62.518C162.085 62.518 158.385 61.6547 155.129 59.928C151.922 58.2013 149.406 55.7347 147.581 52.528C145.805 49.272 144.917 45.4733 144.917 41.132ZM218.944 62L208.658 45.35V62H192.23V7.24H208.658V35.878L219.092 20.264H238.184L222.57 41.28L238.554 62H218.944ZM240.758 35.73C240.758 30.55 241.794 25.9373 243.866 21.892C245.987 17.8467 248.997 14.714 252.894 12.494C256.791 10.2247 261.379 9.09 266.658 9.09C271.197 9.09 275.242 9.95333 278.794 11.68C282.395 13.3573 285.306 15.75 287.526 18.858C289.795 21.966 291.3 25.592 292.04 29.736H274.724C273.935 28.0093 272.8 26.6773 271.32 25.74C269.889 24.7533 268.237 24.26 266.362 24.26C263.599 24.26 261.404 25.296 259.776 27.368C258.197 29.44 257.408 32.2273 257.408 35.73C257.408 39.2327 258.197 42.02 259.776 44.092C261.404 46.164 263.599 47.2 266.362 47.2C268.237 47.2 269.889 46.7313 271.32 45.794C272.8 44.8073 273.935 43.4507 274.724 41.724H292.04C291.3 45.868 289.795 49.494 287.526 52.602C285.306 55.71 282.395 58.1273 278.794 59.854C275.242 61.5313 271.197 62.37 266.658 62.37C261.379 62.37 256.791 61.26 252.894 59.04C248.997 56.7707 245.987 53.6133 243.866 49.568C241.794 45.5227 240.758 40.91 240.758 35.73ZM317.787 62.518C313.594 62.518 309.82 61.6547 306.465 59.928C303.11 58.2013 300.471 55.7347 298.547 52.528C296.672 49.272 295.735 45.4733 295.735 41.132C295.735 36.7907 296.672 33.0167 298.547 29.81C300.471 26.554 303.11 24.0627 306.465 22.336C309.82 20.6093 313.594 19.746 317.787 19.746C321.98 19.746 325.754 20.6093 329.109 22.336C332.464 24.0627 335.078 26.554 336.953 29.81C338.877 33.0167 339.839 36.7907 339.839 41.132C339.839 45.4733 338.877 49.272 336.953 52.528C335.078 55.7347 332.464 58.2013 329.109 59.928C325.754 61.6547 321.98 62.518 317.787 62.518ZM317.787 48.31C319.316 48.31 320.599 47.718 321.635 46.534C322.671 45.3007 323.189 43.5 323.189 41.132C323.189 38.764 322.671 36.988 321.635 35.804C320.599 34.5707 319.316 33.954 317.787 33.954C316.258 33.954 314.975 34.5707 313.939 35.804C312.903 36.988 312.385 38.764 312.385 41.132C312.385 43.5 312.878 45.3007 313.865 46.534C314.901 47.718 316.208 48.31 317.787 48.31ZM389.178 20.264V62H372.75V55.636C371.467 57.6093 369.74 59.2127 367.57 60.446C365.448 61.6793 362.908 62.296 359.948 62.296C355.162 62.296 351.413 60.6927 348.7 57.486C346.036 54.2793 344.704 49.938 344.704 44.462V20.264H361.058V42.39C361.058 44.3633 361.576 45.942 362.612 47.126C363.697 48.2607 365.128 48.828 366.904 48.828C368.729 48.828 370.16 48.2607 371.196 47.126C372.232 45.942 372.75 44.3633 372.75 42.39V20.264H389.178ZM425.827 19.968C430.613 19.968 434.337 21.5713 437.001 24.778C439.715 27.9847 441.071 32.326 441.071 37.802V62H424.717V39.874C424.717 37.9007 424.175 36.3467 423.089 35.212C422.053 34.028 420.647 33.436 418.871 33.436C417.046 33.436 415.615 34.028 414.579 35.212C413.543 36.3467 413.025 37.9007 413.025 39.874V62H396.597V20.264H413.025V26.628C414.308 24.6547 416.01 23.0513 418.131 21.818C420.302 20.5847 422.867 19.968 425.827 19.968ZM474.169 48.014V62H467.953C456.508 62 450.785 56.302 450.785 44.906V33.954H445.605V20.264H450.785V10.2H467.213V20.264H474.021V33.954H467.213V45.202C467.213 46.1887 467.435 46.904 467.879 47.348C468.372 47.792 469.162 48.014 470.247 48.014H474.169Z"/>
</mask>
<path d="M14.4944 35.73C14.4944 30.55 15.5304 25.9373 17.6024 21.892C19.7237 17.8467 22.7331 14.714 26.6304 12.494C30.5277 10.2247 35.1157 9.09 40.3944 9.09C44.9331 9.09 48.9784 9.95333 52.5304 11.68C56.1318 13.3573 59.0424 15.75 61.2624 18.858C63.5317 21.966 65.0364 25.592 65.7764 29.736H48.4604C47.6711 28.0093 46.5364 26.6773 45.0564 25.74C43.6257 24.7533 41.9731 24.26 40.0984 24.26C37.3357 24.26 35.1404 25.296 33.5124 27.368C31.9337 29.44 31.1444 32.2273 31.1444 35.73C31.1444 39.2327 31.9337 42.02 33.5124 44.092C35.1404 46.164 37.3357 47.2 40.0984 47.2C41.9731 47.2 43.6257 46.7313 45.0564 45.794C46.5364 44.8073 47.6711 43.4507 48.4604 41.724H65.7764C65.0364 45.868 63.5317 49.494 61.2624 52.602C59.0424 55.71 56.1318 58.1273 52.5304 59.854C48.9784 61.5313 44.9331 62.37 40.3944 62.37C35.1157 62.37 30.5277 61.26 26.6304 59.04C22.7331 56.7707 19.7237 53.6133 17.6024 49.568C15.5304 45.5227 14.4944 40.91 14.4944 35.73ZM100.921 19.968C105.707 19.968 109.431 21.5713 112.095 24.778C114.809 27.9847 116.165 32.326 116.165 37.802V62H99.8112V39.874C99.8112 37.9007 99.2685 36.3467 98.1832 35.212C97.1472 34.028 95.7412 33.436 93.9652 33.436C92.1399 33.436 90.7092 34.028 89.6732 35.212C88.6372 36.3467 88.1192 37.9007 88.1192 39.874V62H71.6912V7.24H88.1192V26.628C89.4019 24.6547 91.1039 23.0513 93.2252 21.818C95.3959 20.5847 97.9612 19.968 100.921 19.968ZM131.577 16.934C128.716 16.934 126.422 16.1693 124.695 14.64C122.968 13.1107 122.105 11.1867 122.105 8.868C122.105 6.5 122.968 4.55133 124.695 3.022C126.422 1.44333 128.716 0.653996 131.577 0.653996C134.389 0.653996 136.658 1.44333 138.385 3.022C140.112 4.55133 140.975 6.5 140.975 8.868C140.975 11.1867 140.112 13.1107 138.385 14.64C136.658 16.1693 134.389 16.934 131.577 16.934ZM139.717 20.264V62H123.289V20.264H139.717ZM144.917 41.132C144.917 36.7907 145.805 33.0167 147.581 29.81C149.406 26.554 151.922 24.0627 155.129 22.336C158.385 20.6093 162.085 19.746 166.229 19.746C171.655 19.746 176.219 21.2753 179.919 24.334C183.668 27.3927 186.036 31.6353 187.023 37.062H169.633C168.991 34.8913 167.733 33.806 165.859 33.806C164.527 33.806 163.466 34.4227 162.677 35.656C161.937 36.8893 161.567 38.7147 161.567 41.132C161.567 43.5493 161.937 45.3747 162.677 46.608C163.466 47.8413 164.527 48.458 165.859 48.458C167.733 48.458 168.991 47.3727 169.633 45.202H187.023C186.036 50.6287 183.668 54.8713 179.919 57.93C176.219 60.9887 171.655 62.518 166.229 62.518C162.085 62.518 158.385 61.6547 155.129 59.928C151.922 58.2013 149.406 55.7347 147.581 52.528C145.805 49.272 144.917 45.4733 144.917 41.132ZM218.944 62L208.658 45.35V62H192.23V7.24H208.658V35.878L219.092 20.264H238.184L222.57 41.28L238.554 62H218.944ZM240.758 35.73C240.758 30.55 241.794 25.9373 243.866 21.892C245.987 17.8467 248.997 14.714 252.894 12.494C256.791 10.2247 261.379 9.09 266.658 9.09C271.197 9.09 275.242 9.95333 278.794 11.68C282.395 13.3573 285.306 15.75 287.526 18.858C289.795 21.966 291.3 25.592 292.04 29.736H274.724C273.935 28.0093 272.8 26.6773 271.32 25.74C269.889 24.7533 268.237 24.26 266.362 24.26C263.599 24.26 261.404 25.296 259.776 27.368C258.197 29.44 257.408 32.2273 257.408 35.73C257.408 39.2327 258.197 42.02 259.776 44.092C261.404 46.164 263.599 47.2 266.362 47.2C268.237 47.2 269.889 46.7313 271.32 45.794C272.8 44.8073 273.935 43.4507 274.724 41.724H292.04C291.3 45.868 289.795 49.494 287.526 52.602C285.306 55.71 282.395 58.1273 278.794 59.854C275.242 61.5313 271.197 62.37 266.658 62.37C261.379 62.37 256.791 61.26 252.894 59.04C248.997 56.7707 245.987 53.6133 243.866 49.568C241.794 45.5227 240.758 40.91 240.758 35.73ZM317.787 62.518C313.594 62.518 309.82 61.6547 306.465 59.928C303.11 58.2013 300.471 55.7347 298.547 52.528C296.672 49.272 295.735 45.4733 295.735 41.132C295.735 36.7907 296.672 33.0167 298.547 29.81C300.471 26.554 303.11 24.0627 306.465 22.336C309.82 20.6093 313.594 19.746 317.787 19.746C321.98 19.746 325.754 20.6093 329.109 22.336C332.464 24.0627 335.078 26.554 336.953 29.81C338.877 33.0167 339.839 36.7907 339.839 41.132C339.839 45.4733 338.877 49.272 336.953 52.528C335.078 55.7347 332.464 58.2013 329.109 59.928C325.754 61.6547 321.98 62.518 317.787 62.518ZM317.787 48.31C319.316 48.31 320.599 47.718 321.635 46.534C322.671 45.3007 323.189 43.5 323.189 41.132C323.189 38.764 322.671 36.988 321.635 35.804C320.599 34.5707 319.316 33.954 317.787 33.954C316.258 33.954 314.975 34.5707 313.939 35.804C312.903 36.988 312.385 38.764 312.385 41.132C312.385 43.5 312.878 45.3007 313.865 46.534C314.901 47.718 316.208 48.31 317.787 48.31ZM389.178 20.264V62H372.75V55.636C371.467 57.6093 369.74 59.2127 367.57 60.446C365.448 61.6793 362.908 62.296 359.948 62.296C355.162 62.296 351.413 60.6927 348.7 57.486C346.036 54.2793 344.704 49.938 344.704 44.462V20.264H361.058V42.39C361.058 44.3633 361.576 45.942 362.612 47.126C363.697 48.2607 365.128 48.828 366.904 48.828C368.729 48.828 370.16 48.2607 371.196 47.126C372.232 45.942 372.75 44.3633 372.75 42.39V20.264H389.178ZM425.827 19.968C430.613 19.968 434.337 21.5713 437.001 24.778C439.715 27.9847 441.071 32.326 441.071 37.802V62H424.717V39.874C424.717 37.9007 424.175 36.3467 423.089 35.212C422.053 34.028 420.647 33.436 418.871 33.436C417.046 33.436 415.615 34.028 414.579 35.212C413.543 36.3467 413.025 37.9007 413.025 39.874V62H396.597V20.264H413.025V26.628C414.308 24.6547 416.01 23.0513 418.131 21.818C420.302 20.5847 422.867 19.968 425.827 19.968ZM474.169 48.014V62H467.953C456.508 62 450.785 56.302 450.785 44.906V33.954H445.605V20.264H450.785V10.2H467.213V20.264H474.021V33.954H467.213V45.202C467.213 46.1887 467.435 46.904 467.879 47.348C468.372 47.792 469.162 48.014 470.247 48.014H474.169Z" fill="#F97216"/>
<path d="M17.6024 21.892L13.1743 19.5699L13.1632 19.5912L13.1522 19.6126L17.6024 21.892ZM26.6304 12.494L29.1052 16.8386L29.1258 16.8268L29.1464 16.8149L26.6304 12.494ZM52.5304 11.68L50.3445 16.1768L50.3818 16.195L50.4194 16.2125L52.5304 11.68ZM61.2624 18.858L57.1938 21.7642L57.2089 21.7854L57.2243 21.8065L61.2624 18.858ZM65.7764 29.736V34.736H71.7484L70.6986 28.857L65.7764 29.736ZM48.4604 29.736L43.913 31.8148L45.2484 34.736H48.4604V29.736ZM45.0564 25.74L42.2177 29.8561L42.2984 29.9117L42.3812 29.9641L45.0564 25.74ZM33.5124 27.368L29.5808 24.2789L29.5578 24.3082L29.5353 24.3378L33.5124 27.368ZM33.5124 44.092L29.5353 47.1222L29.5578 47.1518L29.5808 47.1811L33.5124 44.092ZM45.0564 45.794L47.7965 49.9763L47.8133 49.9653L47.8299 49.9543L45.0564 45.794ZM48.4604 41.724V36.724H45.2484L43.913 39.6452L48.4604 41.724ZM65.7764 41.724L70.6986 42.603L71.7484 36.724H65.7764V41.724ZM61.2624 52.602L57.2243 49.6535L57.2089 49.6746L57.1938 49.6958L61.2624 52.602ZM52.5304 59.854L54.6654 64.3752L54.6788 64.369L54.6921 64.3626L52.5304 59.854ZM26.6304 59.04L24.1145 63.3609L24.135 63.3728L24.1556 63.3846L26.6304 59.04ZM17.6024 49.568L13.1522 51.8474L13.1632 51.8688L13.1743 51.8901L17.6024 49.568ZM19.4944 35.73C19.4944 31.2311 20.3896 27.4183 22.0526 24.1714L13.1522 19.6126C10.6712 24.4564 9.49441 29.8689 9.49441 35.73H19.4944ZM22.0305 24.214C23.7163 20.9994 26.0551 18.576 29.1052 16.8386L24.1556 8.1494C19.4111 10.852 15.7312 14.694 13.1743 19.5699L22.0305 24.214ZM29.1464 16.8149C32.1583 15.0611 35.8476 14.09 40.3944 14.09V4.09C34.3839 4.09 28.8972 5.38824 24.1145 8.17312L29.1464 16.8149ZM40.3944 14.09C44.2888 14.09 47.5685 14.8274 50.3445 16.1768L54.7164 7.18316C50.3884 5.07926 45.5774 4.09 40.3944 4.09V14.09ZM50.4194 16.2125C53.2715 17.5409 55.4956 19.3868 57.1938 21.7642L65.3311 15.9518C62.5892 12.1132 58.992 9.17378 54.6414 7.1475L50.4194 16.2125ZM57.2243 21.8065C59.0047 24.2448 60.2351 27.1477 60.8543 30.615L70.6986 28.857C69.8377 24.0363 68.0588 19.6872 65.3005 15.9095L57.2243 21.8065ZM65.7764 24.736H48.4604V34.736H65.7764V24.736ZM53.0078 27.6572C51.8507 25.1261 50.0991 23.0153 47.7317 21.5159L42.3812 29.9641C42.9737 30.3394 43.4914 30.8926 43.913 31.8148L53.0078 27.6572ZM47.8951 21.6239C45.5632 20.0158 42.9032 19.26 40.0984 19.26V29.26C41.043 29.26 41.6883 29.4909 42.2177 29.8561L47.8951 21.6239ZM40.0984 19.26C35.8876 19.26 32.2087 20.9343 29.5808 24.2789L37.444 30.4571C38.0721 29.6577 38.7839 29.26 40.0984 29.26V19.26ZM29.5353 24.3378C27.0973 27.5376 26.1444 31.5068 26.1444 35.73H36.1444C36.1444 32.9478 36.7702 31.3424 37.4896 30.3982L29.5353 24.3378ZM26.1444 35.73C26.1444 39.9532 27.0973 43.9224 29.5353 47.1222L37.4896 41.0618C36.7702 40.1176 36.1444 38.5122 36.1444 35.73H26.1444ZM29.5808 47.1811C32.2087 50.5257 35.8876 52.2 40.0984 52.2V42.2C38.7839 42.2 38.0721 41.8023 37.444 41.0029L29.5808 47.1811ZM40.0984 52.2C42.8493 52.2 45.4738 51.4981 47.7965 49.9763L42.3163 41.6117C41.7777 41.9646 41.0969 42.2 40.0984 42.2V52.2ZM47.8299 49.9543C50.1357 48.4171 51.8592 46.3153 53.0078 43.8028L43.913 39.6452C43.483 40.586 42.9371 41.1976 42.2829 41.6337L47.8299 49.9543ZM48.4604 46.724H65.7764V36.724H48.4604V46.724ZM60.8543 40.845C60.2351 44.3123 59.0047 47.2152 57.2243 49.6535L65.3006 55.5505C68.0588 51.7728 69.8377 47.4237 70.6986 42.603L60.8543 40.845ZM57.1938 49.6958C55.4868 52.0856 53.2455 53.9662 50.3688 55.3454L54.6921 64.3626C59.018 62.2885 62.598 59.3344 65.3311 55.5082L57.1938 49.6958ZM50.3954 55.3328C47.6073 56.6494 44.3092 57.37 40.3944 57.37V67.37C45.5569 67.37 50.3496 66.4133 54.6654 64.3752L50.3954 55.3328ZM40.3944 57.37C35.8292 57.37 32.1248 56.4154 29.1052 54.6954L24.1556 63.3846C28.9307 66.1046 34.4023 67.37 40.3944 67.37V57.37ZM29.1464 54.7191C26.0727 52.9294 23.7211 50.4698 22.0305 47.2459L13.1743 51.8901C15.7264 56.7569 19.3935 60.612 24.1145 63.3609L29.1464 54.7191ZM22.0526 47.2886C20.3896 44.0417 19.4944 40.2289 19.4944 35.73H9.49441C9.49441 41.5911 10.6712 47.0036 13.1522 51.8474L22.0526 47.2886ZM112.095 24.778L108.249 27.9731L108.264 27.9905L108.278 28.0077L112.095 24.778ZM116.165 62V67H121.165V62H116.165ZM99.8112 62H94.8112V67H99.8112V62ZM98.1832 35.212L94.4203 38.5045L94.4934 38.588L94.57 38.6681L98.1832 35.212ZM89.6732 35.212L93.3656 38.5833L93.4013 38.5443L93.4361 38.5045L89.6732 35.212ZM88.1192 62V67H93.1192V62H88.1192ZM71.6912 62H66.6912V67H71.6912V62ZM71.6912 7.24V2.24H66.6912V7.24H71.6912ZM88.1192 7.24H93.1192V2.24H88.1192V7.24ZM88.1192 26.628H83.1192V43.4948L92.3114 29.3529L88.1192 26.628ZM93.2252 21.818L90.7552 17.4707L90.7336 17.483L90.7121 17.4955L93.2252 21.818ZM100.921 24.968C104.466 24.968 106.682 26.0865 108.249 27.9731L115.941 21.5829C112.18 17.0562 106.947 14.968 100.921 14.968V24.968ZM108.278 28.0077C110.021 30.0674 111.165 33.1437 111.165 37.802H121.165C121.165 31.5083 119.596 25.9019 115.912 21.5483L108.278 28.0077ZM111.165 37.802V62H121.165V37.802H111.165ZM116.165 57H99.8112V67H116.165V57ZM104.811 62V39.874H94.8112V62H104.811ZM104.811 39.874C104.811 36.9593 103.985 34.0443 101.796 31.7559L94.57 38.6681C94.5948 38.694 94.6364 38.7414 94.6838 38.8769C94.7374 39.0306 94.8112 39.3402 94.8112 39.874H104.811ZM101.946 31.9195C99.8323 29.5037 96.9759 28.436 93.9652 28.436V38.436C94.1318 38.436 94.2447 38.4499 94.3133 38.4626C94.3804 38.4751 94.4092 38.4872 94.4114 38.4882C94.4126 38.4887 94.4047 38.485 94.396 38.4787C94.3877 38.4727 94.3962 38.477 94.4203 38.5045L101.946 31.9195ZM93.9652 28.436C90.9534 28.436 88.0519 29.4719 85.9103 31.9195L93.4361 38.5045C93.4535 38.4847 93.4567 38.4848 93.4457 38.4927C93.4345 38.5008 93.4278 38.5031 93.435 38.5001C93.4459 38.4956 93.5931 38.436 93.9652 38.436V28.436ZM85.9808 31.8407C83.8856 34.1354 83.1192 37.0193 83.1192 39.874H93.1192C93.1192 39.3183 93.1928 38.9848 93.2511 38.8096C93.3038 38.6517 93.3501 38.6004 93.3656 38.5833L85.9808 31.8407ZM83.1192 39.874V62H93.1192V39.874H83.1192ZM88.1192 57H71.6912V67H88.1192V57ZM76.6912 62V7.24H66.6912V62H76.6912ZM71.6912 12.24H88.1192V2.24H71.6912V12.24ZM83.1192 7.24V26.628H93.1192V7.24H83.1192ZM92.3114 29.3529C93.1489 28.0646 94.2643 26.9975 95.7383 26.1405L90.7121 17.4955C87.9434 19.1052 85.6549 21.2448 83.927 23.9031L92.3114 29.3529ZM95.6953 26.1653C96.9842 25.4329 98.6659 24.968 100.921 24.968V14.968C97.2565 14.968 93.8076 15.7364 90.7552 17.4707L95.6953 26.1653ZM124.695 14.64L128.01 10.8971L128.01 10.8971L124.695 14.64ZM124.695 3.022L128.01 6.76494L128.04 6.73877L128.069 6.71214L124.695 3.022ZM138.385 3.022L135.011 6.71214L135.04 6.73877L135.07 6.76494L138.385 3.022ZM138.385 14.64L135.07 10.8971L135.07 10.8971L138.385 14.64ZM139.717 20.264H144.717V15.264H139.717V20.264ZM139.717 62V67H144.717V62H139.717ZM123.289 62H118.289V67H123.289V62ZM123.289 20.264V15.264H118.289V20.264H123.289ZM131.577 11.934C129.632 11.934 128.617 11.4345 128.01 10.8971L121.38 18.3829C124.226 20.9041 127.8 21.934 131.577 21.934V11.934ZM128.01 10.8971C127.361 10.3224 127.105 9.764 127.105 8.868H117.105C117.105 12.6093 118.575 15.8989 121.38 18.3829L128.01 10.8971ZM127.105 8.868C127.105 7.88775 127.387 7.31679 128.01 6.76494L121.38 -0.720944C118.549 1.78587 117.105 5.11224 117.105 8.868H127.105ZM128.069 6.71214C128.679 6.15447 129.672 5.654 131.577 5.654V-4.346C127.759 -4.346 124.164 -3.26781 121.321 -0.668147L128.069 6.71214ZM131.577 5.654C133.406 5.654 134.385 6.13991 135.011 6.71214L141.759 -0.668147C138.931 -3.25325 135.371 -4.346 131.577 -4.346V5.654ZM135.07 6.76494C135.693 7.31679 135.975 7.88775 135.975 8.868H145.975C145.975 5.11225 144.53 1.78587 141.7 -0.720944L135.07 6.76494ZM135.975 8.868C135.975 9.764 135.718 10.3224 135.07 10.8971L141.7 18.3829C144.505 15.8989 145.975 12.6093 145.975 8.868H135.975ZM135.07 10.8971C134.447 11.4483 133.447 11.934 131.577 11.934V21.934C135.33 21.934 138.869 20.8903 141.7 18.3829L135.07 10.8971ZM134.717 20.264V62H144.717V20.264H134.717ZM139.717 57H123.289V67H139.717V57ZM128.289 62V20.264H118.289V62H128.289ZM123.289 25.264H139.717V15.264H123.289V25.264ZM147.581 29.81L143.219 27.365L143.213 27.3762L143.207 27.3875L147.581 29.81ZM155.129 22.336L152.786 17.9187L152.772 17.9261L152.758 17.9336L155.129 22.336ZM179.919 24.334L176.733 28.1877L176.745 28.1981L176.758 28.2083L179.919 24.334ZM187.023 37.062V42.062H193.014L191.942 36.1676L187.023 37.062ZM169.633 37.062L164.837 38.4787L165.896 42.062H169.633V37.062ZM162.677 35.656L158.465 32.9607L158.426 33.0216L158.389 33.0835L162.677 35.656ZM162.677 46.608L158.389 49.1805L158.426 49.2424L158.465 49.3033L162.677 46.608ZM169.633 45.202V40.202H165.896L164.837 43.7853L169.633 45.202ZM187.023 45.202L191.942 46.0964L193.014 40.202H187.023V45.202ZM179.919 57.93L176.758 54.0557L176.745 54.0659L176.733 54.0763L179.919 57.93ZM155.129 59.928L152.758 64.3304L152.772 64.3379L152.786 64.3453L155.129 59.928ZM147.581 52.528L143.191 54.9223L143.213 54.9621L143.235 55.0015L147.581 52.528ZM149.917 41.132C149.917 37.4817 150.659 34.572 151.954 32.2325L143.207 27.3875C140.95 31.4614 139.917 36.0996 139.917 41.132H149.917ZM151.942 32.255C153.315 29.8055 155.15 28.0031 157.499 26.7384L152.758 17.9336C148.694 20.1222 145.497 23.3025 143.219 27.365L151.942 32.255ZM157.471 26.7533C159.92 25.4548 162.798 24.746 166.229 24.746V14.746C161.371 14.746 156.849 15.7639 152.786 17.9187L157.471 26.7533ZM166.229 24.746C170.653 24.746 174.046 25.9664 176.733 28.1877L183.104 20.4803C178.391 16.5843 172.657 14.746 166.229 14.746V24.746ZM176.758 28.2083C179.457 30.4099 181.298 33.5267 182.103 37.9564L191.942 36.1676C190.774 29.744 187.879 24.3754 183.079 20.4597L176.758 28.2083ZM187.023 32.062H169.633V42.062H187.023V32.062ZM174.428 35.6453C173.931 33.963 173.048 32.1923 171.474 30.8342C169.82 29.4073 167.831 28.806 165.859 28.806V38.806C165.842 38.806 165.711 38.8029 165.512 38.734C165.305 38.6621 165.105 38.5466 164.942 38.4058C164.626 38.1331 164.693 37.9904 164.837 38.4787L174.428 35.6453ZM165.859 28.806C162.63 28.806 160.065 30.461 158.465 32.9607L166.888 38.3513C166.936 38.2756 166.855 38.4294 166.577 38.591C166.28 38.7641 165.997 38.806 165.859 38.806V28.806ZM158.389 33.0835C156.965 35.4573 156.567 38.3553 156.567 41.132H166.567C166.567 40.1641 166.642 39.4492 166.744 38.9433C166.795 38.6951 166.848 38.5174 166.891 38.3977C166.912 38.3386 166.931 38.2963 166.944 38.2684C166.957 38.2406 166.964 38.2282 166.964 38.2285L158.389 33.0835ZM156.567 41.132C156.567 43.9087 156.965 46.8067 158.389 49.1805L166.964 44.0355C166.964 44.0358 166.957 44.0234 166.944 43.9956C166.931 43.9677 166.912 43.9254 166.891 43.8663C166.848 43.7466 166.795 43.5689 166.744 43.3207C166.642 42.8148 166.567 42.0999 166.567 41.132H156.567ZM158.465 49.3033C160.065 51.803 162.63 53.458 165.859 53.458V43.458C165.997 43.458 166.28 43.4999 166.577 43.673C166.855 43.8346 166.936 43.9884 166.888 43.9127L158.465 49.3033ZM165.859 53.458C167.831 53.458 169.82 52.8567 171.474 51.4298C173.048 50.0717 173.931 48.301 174.428 46.6187L164.837 43.7853C164.693 44.2736 164.626 44.1309 164.942 43.8582C165.105 43.7174 165.305 43.6019 165.512 43.53C165.711 43.4611 165.842 43.458 165.859 43.458V53.458ZM169.633 50.202H187.023V40.202H169.633V50.202ZM182.103 44.3076C181.298 48.7373 179.457 51.8541 176.758 54.0557L183.079 61.8043C187.879 57.8886 190.774 52.52 191.942 46.0964L182.103 44.3076ZM176.733 54.0763C174.046 56.2976 170.653 57.518 166.229 57.518V67.518C172.657 67.518 178.391 65.6797 183.104 61.7837L176.733 54.0763ZM166.229 57.518C162.798 57.518 159.92 56.8092 157.471 55.5107L152.786 64.3453C156.849 66.5001 161.371 67.518 166.229 67.518V57.518ZM157.499 55.5256C155.13 54.25 153.293 52.457 151.926 50.0545L143.235 55.0015C145.518 59.0124 148.714 62.1527 152.758 64.3304L157.499 55.5256ZM151.97 50.1337C150.658 47.7284 149.917 44.78 149.917 41.132H139.917C139.917 46.1667 140.951 50.8156 143.191 54.9223L151.97 50.1337ZM218.944 62L214.691 64.6279L216.156 67H218.944V62ZM208.658 45.35L212.912 42.7221L203.658 27.7431V45.35H208.658ZM208.658 62V67H213.658V62H208.658ZM192.23 62H187.23V67H192.23V62ZM192.23 7.24V2.24H187.23V7.24H192.23ZM208.658 7.24H213.658V2.24H208.658V7.24ZM208.658 35.878H203.658V52.3594L212.815 38.656L208.658 35.878ZM219.092 20.264V15.264H216.42L214.935 17.486L219.092 20.264ZM238.184 20.264L242.198 23.2459L248.128 15.264H238.184V20.264ZM222.57 41.28L218.557 38.2981L216.299 41.3367L218.611 44.334L222.57 41.28ZM238.554 62V67H248.726L242.513 58.946L238.554 62ZM223.198 59.3721L212.912 42.7221L204.405 47.9779L214.691 64.6279L223.198 59.3721ZM203.658 45.35V62H213.658V45.35H203.658ZM208.658 57H192.23V67H208.658V57ZM197.23 62V7.24H187.23V62H197.23ZM192.23 12.24H208.658V2.24H192.23V12.24ZM203.658 7.24V35.878H213.658V7.24H203.658ZM212.815 38.656L223.249 23.042L214.935 17.486L204.501 33.1L212.815 38.656ZM219.092 25.264H238.184V15.264H219.092V25.264ZM234.171 17.2821L218.557 38.2981L226.584 44.2619L242.198 23.2459L234.171 17.2821ZM218.611 44.334L234.595 65.054L242.513 58.946L226.529 38.226L218.611 44.334ZM238.554 57H218.944V67H238.554V57ZM243.866 21.892L239.438 19.5699L239.427 19.5912L239.416 19.6126L243.866 21.892ZM252.894 12.494L255.369 16.8386L255.39 16.8268L255.41 16.8149L252.894 12.494ZM278.794 11.68L276.608 16.1768L276.645 16.195L276.683 16.2125L278.794 11.68ZM287.526 18.858L283.457 21.7642L283.473 21.7854L283.488 21.8065L287.526 18.858ZM292.04 29.736V34.736H298.012L296.962 28.857L292.04 29.736ZM274.724 29.736L270.177 31.8148L271.512 34.736H274.724V29.736ZM271.32 25.74L268.481 29.8561L268.562 29.9117L268.645 29.9641L271.32 25.74ZM259.776 27.368L255.844 24.2789L255.821 24.3082L255.799 24.3378L259.776 27.368ZM259.776 44.092L255.799 47.1222L255.821 47.1518L255.844 47.1811L259.776 44.092ZM271.32 45.794L274.06 49.9763L274.077 49.9653L274.094 49.9543L271.32 45.794ZM274.724 41.724V36.724H271.512L270.177 39.6452L274.724 41.724ZM292.04 41.724L296.962 42.603L298.012 36.724H292.04V41.724ZM287.526 52.602L283.488 49.6535L283.473 49.6746L283.457 49.6958L287.526 52.602ZM278.794 59.854L280.929 64.3752L280.942 64.369L280.956 64.3626L278.794 59.854ZM252.894 59.04L250.378 63.3609L250.399 63.3728L250.419 63.3846L252.894 59.04ZM243.866 49.568L239.416 51.8474L239.427 51.8688L239.438 51.8901L243.866 49.568ZM245.758 35.73C245.758 31.2311 246.653 27.4183 248.316 24.1714L239.416 19.6126C236.935 24.4564 235.758 29.8689 235.758 35.73H245.758ZM248.294 24.214C249.98 20.9994 252.319 18.576 255.369 16.8386L250.419 8.1494C245.675 10.852 241.995 14.694 239.438 19.5699L248.294 24.214ZM255.41 16.8149C258.422 15.0611 262.111 14.09 266.658 14.09V4.09C260.648 4.09 255.161 5.38824 250.378 8.17312L255.41 16.8149ZM266.658 14.09C270.552 14.09 273.832 14.8274 276.608 16.1768L280.98 7.18316C276.652 5.07926 271.841 4.09 266.658 4.09V14.09ZM276.683 16.2125C279.535 17.5409 281.759 19.3868 283.457 21.7642L291.595 15.9518C288.853 12.1132 285.256 9.17378 280.905 7.1475L276.683 16.2125ZM283.488 21.8065C285.268 24.2448 286.499 27.1477 287.118 30.615L296.962 28.857C296.101 24.0363 294.322 19.6872 291.564 15.9095L283.488 21.8065ZM292.04 24.736H274.724V34.736H292.04V24.736ZM279.271 27.6572C278.114 25.1261 276.363 23.0153 273.995 21.5159L268.645 29.9641C269.237 30.3394 269.755 30.8926 270.177 31.8148L279.271 27.6572ZM274.159 21.6239C271.827 20.0158 269.167 19.26 266.362 19.26V29.26C267.307 29.26 267.952 29.4909 268.481 29.8561L274.159 21.6239ZM266.362 19.26C262.151 19.26 258.472 20.9343 255.844 24.2789L263.708 30.4571C264.336 29.6577 265.048 29.26 266.362 29.26V19.26ZM255.799 24.3378C253.361 27.5376 252.408 31.5068 252.408 35.73H262.408C262.408 32.9478 263.034 31.3424 263.753 30.3982L255.799 24.3378ZM252.408 35.73C252.408 39.9532 253.361 43.9224 255.799 47.1222L263.753 41.0618C263.034 40.1176 262.408 38.5122 262.408 35.73H252.408ZM255.844 47.1811C258.472 50.5257 262.151 52.2 266.362 52.2V42.2C265.048 42.2 264.336 41.8023 263.708 41.0029L255.844 47.1811ZM266.362 52.2C269.113 52.2 271.738 51.4981 274.06 49.9763L268.58 41.6117C268.041 41.9646 267.361 42.2 266.362 42.2V52.2ZM274.094 49.9543C276.399 48.4171 278.123 46.3153 279.271 43.8028L270.177 39.6452C269.747 40.586 269.201 41.1976 268.547 41.6337L274.094 49.9543ZM274.724 46.724H292.04V36.724H274.724V46.724ZM287.118 40.845C286.499 44.3123 285.268 47.2152 283.488 49.6535L291.564 55.5505C294.322 51.7728 296.101 47.4237 296.962 42.603L287.118 40.845ZM283.457 49.6958C281.75 52.0856 279.509 53.9662 276.632 55.3454L280.956 64.3626C285.282 62.2885 288.862 59.3344 291.595 55.5082L283.457 49.6958ZM276.659 55.3328C273.871 56.6494 270.573 57.37 266.658 57.37V67.37C271.821 67.37 276.613 66.4133 280.929 64.3752L276.659 55.3328ZM266.658 57.37C262.093 57.37 258.388 56.4154 255.369 54.6954L250.419 63.3846C255.194 66.1046 260.666 67.37 266.658 67.37V57.37ZM255.41 54.7191C252.336 52.9294 249.985 50.4698 248.294 47.2459L239.438 51.8901C241.99 56.7569 245.657 60.612 250.378 63.3609L255.41 54.7191ZM248.316 47.2886C246.653 44.0417 245.758 40.2289 245.758 35.73H235.758C235.758 41.5911 236.935 47.0036 239.416 51.8474L248.316 47.2886ZM306.465 59.928L308.753 55.4823L306.465 59.928ZM298.547 52.528L294.214 55.0228L294.236 55.0619L294.259 55.1005L298.547 52.528ZM298.547 29.81L294.242 27.2664L294.236 27.2764L294.23 27.2865L298.547 29.81ZM306.465 22.336L308.753 26.7817L308.753 26.7817L306.465 22.336ZM329.109 22.336L326.821 26.7817L326.821 26.7817L329.109 22.336ZM336.953 29.81L332.62 32.3048L332.642 32.3439L332.665 32.3825L336.953 29.81ZM336.953 52.528L332.648 49.9844L332.642 49.9944L332.636 50.0045L336.953 52.528ZM329.109 59.928L326.821 55.4823L326.821 55.4823L329.109 59.928ZM321.635 46.534L325.398 49.8265L325.431 49.7886L325.463 49.75L321.635 46.534ZM321.635 35.804L317.806 39.02L317.839 39.0586L317.872 39.0965L321.635 35.804ZM313.939 35.804L317.702 39.0965L317.735 39.0586L317.767 39.02L313.939 35.804ZM313.865 46.534L309.961 49.6575L310.029 49.7436L310.102 49.8265L313.865 46.534ZM317.787 57.518C314.3 57.518 311.324 56.8056 308.753 55.4823L304.177 64.3737C308.315 66.5037 312.888 67.518 317.787 67.518V57.518ZM308.753 55.4823C306.218 54.1777 304.275 52.3563 302.834 49.9555L294.259 55.1005C296.667 59.113 300.002 62.225 304.177 64.3737L308.753 55.4823ZM302.88 50.0332C301.506 47.6472 300.735 44.7355 300.735 41.132H290.735C290.735 46.2111 291.838 50.8968 294.214 55.0228L302.88 50.0332ZM300.735 41.132C300.735 37.5263 301.507 34.6537 302.863 32.3335L294.23 27.2865C291.838 31.3796 290.735 36.055 290.735 41.132H300.735ZM302.852 32.3536C304.297 29.907 306.239 28.0759 308.753 26.7817L304.177 17.8903C299.982 20.0494 296.644 23.201 294.242 27.2664L302.852 32.3536ZM308.753 26.7817C311.324 25.4584 314.3 24.746 317.787 24.746V14.746C312.888 14.746 308.315 15.7603 304.177 17.8903L308.753 26.7817ZM317.787 24.746C321.274 24.746 324.25 25.4584 326.821 26.7817L331.397 17.8903C327.259 15.7603 322.686 14.746 317.787 14.746V24.746ZM326.821 26.7817C329.324 28.0702 331.227 29.886 332.62 32.3048L341.286 27.3152C338.929 23.222 335.603 20.0551 331.397 17.8903L326.821 26.7817ZM332.665 32.3825C334.053 34.6943 334.839 37.5489 334.839 41.132H344.839C344.839 36.0324 343.701 31.339 341.24 27.2375L332.665 32.3825ZM334.839 41.132C334.839 44.7131 334.053 47.6069 332.648 49.9844L341.258 55.0716C343.701 50.9371 344.839 46.2336 344.839 41.132H334.839ZM332.636 50.0045C331.249 52.3771 329.344 54.1833 326.821 55.4823L331.397 64.3737C335.583 62.2193 338.907 59.0922 341.269 55.0515L332.636 50.0045ZM326.821 55.4823C324.25 56.8056 321.274 57.518 317.787 57.518V67.518C322.686 67.518 327.259 66.5037 331.397 64.3737L326.821 55.4823ZM317.787 53.31C320.805 53.31 323.444 52.0599 325.398 49.8265L317.872 43.2415C317.814 43.3075 317.779 43.3356 317.771 43.3416C317.765 43.3468 317.775 43.338 317.801 43.3262C317.826 43.3143 317.848 43.3082 317.858 43.3063C317.866 43.3045 317.845 43.31 317.787 43.31V53.31ZM325.463 49.75C327.542 47.2758 328.189 44.139 328.189 41.132H318.189C318.189 41.9654 318.096 42.5253 317.995 42.8762C317.898 43.2126 317.806 43.318 317.806 43.318L325.463 49.75ZM328.189 41.132C328.189 38.1451 327.55 34.9711 325.398 32.5115L317.872 39.0965C317.792 39.0049 318.189 39.3829 318.189 41.132H328.189ZM325.463 32.588C323.535 30.2926 320.881 28.954 317.787 28.954V38.954C317.831 38.954 317.838 38.9583 317.817 38.9536C317.807 38.9514 317.793 38.9478 317.777 38.9422C317.76 38.9366 317.744 38.93 317.729 38.9228C317.714 38.9156 317.703 38.9091 317.696 38.9046C317.689 38.9002 317.688 38.899 317.693 38.903C317.703 38.9107 317.742 38.9439 317.806 39.02L325.463 32.588ZM317.787 28.954C314.693 28.954 312.039 30.2926 310.11 32.588L317.767 39.02C317.831 38.9439 317.871 38.9107 317.881 38.903C317.886 38.899 317.885 38.9002 317.878 38.9046C317.871 38.9091 317.859 38.9156 317.844 38.9228C317.829 38.93 317.813 38.9366 317.797 38.9422C317.781 38.9478 317.767 38.9514 317.757 38.9536C317.736 38.9583 317.742 38.954 317.787 38.954V28.954ZM310.176 32.5115C308.024 34.9711 307.385 38.1451 307.385 41.132H317.385C317.385 39.3829 317.782 39.0049 317.702 39.0965L310.176 32.5115ZM307.385 41.132C307.385 44.0922 307.987 47.1904 309.961 49.6575L317.769 43.4105C317.768 43.4089 317.746 43.3811 317.711 43.3105C317.676 43.2384 317.627 43.1188 317.577 42.9373C317.475 42.5646 317.385 41.983 317.385 41.132H307.385ZM310.102 49.8265C312.091 52.0999 314.772 53.31 317.787 53.31V43.31C317.706 43.31 317.666 43.3025 317.658 43.301C317.652 43.2997 317.664 43.3018 317.685 43.3112C317.706 43.3206 317.716 43.3286 317.713 43.3262C317.709 43.3229 317.679 43.2998 317.628 43.2415L310.102 49.8265ZM389.178 20.264H394.178V15.264H389.178V20.264ZM389.178 62V67H394.178V62H389.178ZM372.75 62H367.75V67H372.75V62ZM372.75 55.636H377.75V38.7692L368.558 52.9111L372.75 55.636ZM367.57 60.446L365.1 56.0987L365.078 56.111L365.057 56.1235L367.57 60.446ZM348.7 57.486L344.854 60.6811L344.868 60.6985L344.883 60.7157L348.7 57.486ZM344.704 20.264V15.264H339.704V20.264H344.704ZM361.058 20.264H366.058V15.264H361.058V20.264ZM362.612 47.126L358.849 50.4185L358.922 50.502L358.999 50.5821L362.612 47.126ZM371.196 47.126L374.888 50.4973L374.924 50.4583L374.959 50.4185L371.196 47.126ZM372.75 20.264V15.264H367.75V20.264H372.75ZM384.178 20.264V62H394.178V20.264H384.178ZM389.178 57H372.75V67H389.178V57ZM377.75 62V55.636H367.75V62H377.75ZM368.558 52.9111C367.737 54.1729 366.618 55.2359 365.1 56.0987L370.04 64.7933C372.863 63.1894 375.197 61.0457 376.942 58.3609L368.558 52.9111ZM365.057 56.1235C363.842 56.8297 362.207 57.296 359.948 57.296V67.296C363.609 67.296 367.055 66.5289 370.083 64.7685L365.057 56.1235ZM359.948 57.296C356.404 57.296 354.142 56.1765 352.517 54.2563L344.883 60.7157C348.685 65.2089 353.921 67.296 359.948 67.296V57.296ZM352.546 54.2909C350.834 52.2305 349.704 49.1409 349.704 44.462H339.704C339.704 50.7351 341.238 56.3282 344.854 60.6811L352.546 54.2909ZM349.704 44.462V20.264H339.704V44.462H349.704ZM344.704 25.264H361.058V15.264H344.704V25.264ZM356.058 20.264V42.39H366.058V20.264H356.058ZM356.058 42.39C356.058 45.2559 356.828 48.1089 358.849 50.4185L366.375 43.8335C366.324 43.7751 366.058 43.4708 366.058 42.39H356.058ZM358.999 50.5821C361.155 52.8363 363.96 53.828 366.904 53.828V43.828C366.551 43.828 366.388 43.7727 366.342 43.7546C366.309 43.7417 366.281 43.728 366.225 43.6699L358.999 50.5821ZM366.904 53.828C369.846 53.828 372.727 52.8646 374.888 50.4973L367.503 43.7547C367.493 43.7659 367.494 43.7628 367.505 43.7552C367.516 43.7476 367.519 43.7483 367.503 43.7546C367.472 43.7667 367.3 43.828 366.904 43.828V53.828ZM374.959 50.4185C376.98 48.1089 377.75 45.2559 377.75 42.39H367.75C367.75 43.4708 367.484 43.7751 367.433 43.8335L374.959 50.4185ZM377.75 42.39V20.264H367.75V42.39H377.75ZM372.75 25.264H389.178V15.264H372.75V25.264ZM437.001 24.778L433.156 27.9731L433.17 27.9905L433.185 28.0077L437.001 24.778ZM441.071 62V67H446.071V62H441.071ZM424.717 62H419.717V67H424.717V62ZM423.089 35.212L419.327 38.5045L419.4 38.588L419.476 38.6681L423.089 35.212ZM414.579 35.212L418.272 38.5833L418.308 38.5443L418.342 38.5045L414.579 35.212ZM413.025 62V67H418.025V62H413.025ZM396.597 62H391.597V67H396.597V62ZM396.597 20.264V15.264H391.597V20.264H396.597ZM413.025 20.264H418.025V15.264H413.025V20.264ZM413.025 26.628H408.025V43.4948L417.218 29.3529L413.025 26.628ZM418.131 21.818L415.661 17.4707L415.64 17.483L415.618 17.4955L418.131 21.818ZM425.827 24.968C429.372 24.968 431.588 26.0865 433.156 27.9731L440.847 21.5829C437.087 17.0562 431.853 14.968 425.827 14.968V24.968ZM433.185 28.0077C434.927 30.0674 436.071 33.1437 436.071 37.802H446.071C446.071 31.5083 444.502 25.9019 440.818 21.5483L433.185 28.0077ZM436.071 37.802V62H446.071V37.802H436.071ZM441.071 57H424.717V67H441.071V57ZM429.717 62V39.874H419.717V62H429.717ZM429.717 39.874C429.717 36.9593 428.892 34.0443 426.703 31.7559L419.476 38.6681C419.501 38.694 419.543 38.7414 419.59 38.8769C419.644 39.0306 419.717 39.3402 419.717 39.874H429.717ZM426.852 31.9195C424.739 29.5037 421.882 28.436 418.871 28.436V38.436C419.038 38.436 419.151 38.4499 419.22 38.4626C419.287 38.4751 419.315 38.4872 419.318 38.4882C419.319 38.4887 419.311 38.485 419.302 38.4787C419.294 38.4727 419.302 38.477 419.327 38.5045L426.852 31.9195ZM418.871 28.436C415.86 28.436 412.958 29.4719 410.817 31.9195L418.342 38.5045C418.36 38.4847 418.363 38.4848 418.352 38.4927C418.341 38.5008 418.334 38.5031 418.341 38.5001C418.352 38.4956 418.499 38.436 418.871 38.436V28.436ZM410.887 31.8407C408.792 34.1354 408.025 37.0193 408.025 39.874H418.025C418.025 39.3183 418.099 38.9848 418.157 38.8096C418.21 38.6517 418.256 38.6004 418.272 38.5833L410.887 31.8407ZM408.025 39.874V62H418.025V39.874H408.025ZM413.025 57H396.597V67H413.025V57ZM401.597 62V20.264H391.597V62H401.597ZM396.597 25.264H413.025V15.264H396.597V25.264ZM408.025 20.264V26.628H418.025V20.264H408.025ZM417.218 29.3529C418.055 28.0646 419.171 26.9975 420.645 26.1405L415.618 17.4955C412.85 19.1052 410.561 21.2448 408.833 23.9031L417.218 29.3529ZM420.602 26.1653C421.89 25.4329 423.572 24.968 425.827 24.968V14.968C422.163 14.968 418.714 15.7364 415.661 17.4707L420.602 26.1653ZM474.169 48.014H479.169V43.014H474.169V48.014ZM474.169 62V67H479.169V62H474.169ZM450.785 33.954H455.785V28.954H450.785V33.954ZM445.605 33.954H440.605V38.954H445.605V33.954ZM445.605 20.264V15.264H440.605V20.264H445.605ZM450.785 20.264V25.264H455.785V20.264H450.785ZM450.785 10.2V5.2H445.785V10.2H450.785ZM467.213 10.2H472.213V5.2H467.213V10.2ZM467.213 20.264H462.213V25.264H467.213V20.264ZM474.021 20.264H479.021V15.264H474.021V20.264ZM474.021 33.954V38.954H479.021V33.954H474.021ZM467.213 33.954V28.954H462.213V33.954H467.213ZM467.879 47.348L464.344 50.8835L464.437 50.9765L464.534 51.0645L467.879 47.348ZM469.169 48.014V62H479.169V48.014H469.169ZM474.169 57H467.953V67H474.169V57ZM467.953 57C462.996 57 460.197 55.7687 458.605 54.1833C457.017 52.602 455.785 49.8278 455.785 44.906H445.785C445.785 51.3802 447.415 57.153 451.549 61.2697C455.68 65.3823 461.465 67 467.953 67V57ZM455.785 44.906V33.954H445.785V44.906H455.785ZM450.785 28.954H445.605V38.954H450.785V28.954ZM450.605 33.954V20.264H440.605V33.954H450.605ZM445.605 25.264H450.785V15.264H445.605V25.264ZM455.785 20.264V10.2H445.785V20.264H455.785ZM450.785 15.2H467.213V5.2H450.785V15.2ZM462.213 10.2V20.264H472.213V10.2H462.213ZM467.213 25.264H474.021V15.264H467.213V25.264ZM469.021 20.264V33.954H479.021V20.264H469.021ZM474.021 28.954H467.213V38.954H474.021V28.954ZM462.213 33.954V45.202H472.213V33.954H462.213ZM462.213 45.202C462.213 46.7801 462.546 49.0861 464.344 50.8835L471.415 43.8125C471.867 44.2651 472.072 44.7279 472.155 44.9965C472.232 45.2433 472.213 45.3424 472.213 45.202H462.213ZM464.534 51.0645C466.376 52.7219 468.663 53.014 470.247 53.014V43.014C470.024 43.014 470.033 42.9888 470.195 43.0342C470.369 43.0832 470.781 43.2333 471.224 43.6315L464.534 51.0645ZM470.247 53.014H474.169V43.014H470.247V53.014Z" fill="#FEDF9E" mask="url(#path-1-outside-1_260_299)"/>
</svg>
